<?xml version="1.0" standalone="no"?>
<!DOCTYPE svg PUBLIC "-//W3C//DTD SVG 20010904//EN"
 "http://www.w3.org/TR/2001/REC-SVG-20010904/DTD/svg10.dtd">
<svg version="1.0" xmlns="http://www.w3.org/2000/svg"
 width="289.000000pt" height="289.000000pt" viewBox="0 0 289.000000 289.000000"
 preserveAspectRatio="xMidYMid meet">
<metadata>
Created by potrace 1.11, written by Peter Selinger 2001-2013
</metadata>
<g transform="translate(0.000000,289.000000) scale(0.100000,-0.100000)"
fill="#000000" stroke="none">
<path d="M376 1996 c6 -15 4 -17 -6 -11 -9 6 -11 4 -5 -4 5 -9 10 -10 18 -2 8
8 7 14 -2 24 -10 10 -11 8 -5 -7z"/>
<path d="M333 1979 c-6 -21 -7 -21 -20 -4 -7 11 -13 13 -13 7 0 -7 -5 -12 -11
-12 -5 0 -7 5 -3 12 5 7 3 8 -7 2 -14 -8 -33 -14 -55 -16 -6 -1 -11 -7 -11
-14 0 -9 7 -8 24 3 13 8 23 11 23 7 0 -14 -49 -34 -56 -23 -4 6 -11 6 -18 0
-7 -6 -17 -7 -21 -3 -5 4 -4 0 1 -8 13 -23 12 -57 -2 -57 -9 0 -10 4 -4 12 5
6 5 16 -1 25 -8 13 -9 12 -7 -2 2 -9 -6 -24 -17 -32 -15 -12 -16 -14 -3 -10
11 4 21 -2 28 -16 7 -13 8 -20 2 -16 -16 10 -32 -17 -20 -34 8 -13 9 -12 5 2
-4 12 0 16 13 15 14 -1 16 -4 8 -14 -6 -7 -7 -13 -2 -13 5 0 3 -4 -5 -9 -9 -6
-10 -11 -2 -15 10 -6 15 6 12 27 0 4 4 7 9 7 16 0 12 -16 -10 -41 -12 -16 -19
-19 -20 -10 0 8 -3 12 -6 9 -3 -4 0 -17 7 -30 16 -29 20 -50 8 -42 -5 3 -7 10
-4 15 3 5 -1 6 -10 3 -10 -4 -12 -10 -6 -18 8 -10 8 -36 1 -56 -1 -3 -2 -9 -1
-13 1 -5 -8 -11 -19 -14 -11 -3 -21 -9 -21 -14 -1 -5 -2 -15 -3 -21 -1 -7 -8
-12 -15 -10 -7 1 -10 -2 -6 -8 3 -6 11 -7 17 -4 8 5 9 1 5 -10 -4 -10 -7 -20
-7 -22 0 -3 -5 -2 -12 2 -6 4 -8 3 -4 -4 3 -6 2 -13 -4 -17 -6 -4 -8 -10 -5
-15 3 -5 1 -18 -5 -29 -7 -14 -7 -22 2 -27 7 -4 8 -3 4 4 -5 8 -2 10 8 6 14
-5 14 -8 1 -21 -8 -8 -15 -19 -15 -24 0 -6 -4 -8 -9 -5 -5 3 -15 -2 -22 -12
-12 -15 -12 -16 1 -5 10 8 21 9 30 3 13 -8 12 -10 -3 -10 -10 0 -20 -7 -23
-15 -4 -8 -11 -12 -18 -8 -6 4 -4 -2 4 -13 22 -29 24 -30 17 -12 -3 10 1 22
11 29 14 11 15 11 5 0 -14 -16 -7 -38 21 -70 12 -13 15 -21 9 -17 -7 4 -13 2
-13 -3 0 -6 5 -11 11 -11 5 0 7 -6 3 -12 -5 -8 0 -7 11 2 17 14 18 13 12 -2
-5 -13 -1 -16 19 -12 14 3 24 0 24 -7 0 -8 4 -8 13 0 10 8 17 7 25 -1 10 -10
17 -10 31 -1 19 12 31 8 31 -10 0 -5 -7 -6 -16 -3 -12 4 -15 2 -10 -9 4 -12 1
-12 -21 2 -26 17 -27 17 -20 -2 7 -19 6 -19 -7 -2 -8 10 -17 14 -20 8 -3 -5
-14 -8 -24 -7 -9 2 -22 -4 -28 -12 -9 -12 -13 -12 -19 -2 -6 9 -4 11 6 5 8 -5
11 -5 7 0 -4 4 -1 13 8 19 13 10 13 12 -5 12 -11 0 -17 -4 -15 -8 3 -4 -5 -12
-16 -18 -16 -9 -18 -15 -10 -31 7 -11 16 -17 23 -12 7 4 6 -1 -2 -11 -12 -14
-12 -19 -2 -25 10 -6 9 -10 -4 -14 -9 -4 -13 -3 -10 3 3 6 2 10 -3 10 -18 0
-20 -60 -3 -71 13 -8 10 -9 -12 -6 -26 4 -27 3 -11 -14 9 -10 14 -24 11 -32
-3 -7 1 -14 9 -14 7 0 11 3 9 7 -2 3 1 12 7 20 8 12 9 12 4 -2 -7 -22 13 -35
26 -17 8 12 9 11 5 -1 -2 -8 -12 -14 -21 -14 -9 1 -16 -2 -16 -6 0 -5 15 -8
34 -7 25 2 32 5 24 14 -7 9 -2 11 19 7 20 -3 24 -2 13 5 -8 6 -12 13 -8 16 3
3 13 -2 23 -11 12 -12 13 -19 5 -24 -8 -5 -7 -9 5 -13 9 -4 14 -3 11 2 -5 8
18 22 34 22 3 0 11 10 18 22 l13 22 -6 -22 c-3 -12 -1 -25 6 -29 7 -4 9 -3 5
4 -3 6 -1 14 5 18 8 4 9 3 5 -4 -4 -7 -2 -12 5 -12 8 0 8 -5 -2 -17 -7 -10 -1
-7 15 7 27 23 28 24 17 3 -13 -26 -15 -44 -2 -24 5 8 19 16 31 18 14 2 19 -1
14 -9 -4 -7 -3 -8 5 -4 6 4 9 12 6 17 -4 5 4 7 17 5 13 -2 22 -8 21 -13 -1 -5
7 -9 17 -9 10 0 17 3 14 7 -2 4 10 6 28 5 18 -2 39 1 46 7 7 5 15 7 19 3 4 -3
-2 -13 -13 -21 -17 -14 -17 -14 9 -3 15 6 26 17 24 23 -3 6 4 11 14 11 12 0
15 -4 9 -11 -6 -7 -1 -16 12 -24 15 -10 18 -10 12 0 -5 9 -2 10 10 6 11 -4 15
-3 10 4 -4 8 1 9 17 4 19 -5 21 -4 9 5 -12 9 -10 10 10 4 23 -6 24 -6 10 12
-14 18 -14 18 6 1 11 -9 24 -14 29 -10 4 5 6 1 2 -9 -5 -13 0 -15 24 -11 23 3
29 0 30 -14 0 -11 3 -13 6 -5 4 10 11 9 31 -4 27 -17 27 -17 9 3 -18 20 -18
21 0 19 10 0 17 5 15 12 -1 8 2 11 7 8 12 -8 34 20 35 47 1 12 5 27 9 34 4 6
1 13 -5 16 -7 2 -10 7 -7 11 3 3 14 -3 25 -15 12 -14 14 -19 5 -17 -26 6 -19
-45 9 -75 25 -27 28 -28 44 -12 9 10 15 23 13 29 -3 7 5 12 18 12 13 0 21 -4
19 -8 -3 -5 -10 -6 -15 -3 -5 4 -9 1 -9 -6 0 -6 8 -9 20 -6 11 3 23 0 27 -5 3
-7 1 -8 -5 -4 -7 4 -12 2 -12 -4 0 -7 8 -9 22 -4 21 6 22 5 8 -12 -14 -18 -13
-18 8 0 12 11 21 25 18 31 -2 7 2 12 10 12 7 0 11 -3 9 -7 -3 -4 5 -16 17 -26
12 -11 18 -13 14 -6 -9 16 24 13 37 -3 5 -5 6 0 2 12 -3 12 -1 24 5 28 6 4 10
3 9 -2 -3 -19 2 -30 16 -30 11 0 12 4 3 14 -9 11 -7 12 7 7 12 -5 16 -4 11 4
-3 6 -1 14 6 18 7 4 10 4 6 -1 -4 -4 -2 -15 5 -23 6 -9 7 -13 1 -9 -6 3 -11 0
-11 -7 0 -7 6 -13 13 -13 7 0 10 5 7 10 -4 6 0 8 10 4 22 -8 49 2 40 16 -4 6
-1 7 6 3 9 -6 8 -13 -6 -29 -12 -15 -13 -18 -2 -9 9 6 20 8 24 4 5 -4 4 -1 0
7 -6 11 -4 13 10 7 15 -5 16 -4 6 8 -9 11 -9 16 0 22 8 4 9 3 5 -4 -7 -12 8
-16 51 -12 17 1 21 -3 18 -20 -2 -11 0 -18 6 -15 5 4 7 11 4 16 -4 5 -1 9 6 9
8 0 9 3 0 13 -9 11 -6 14 14 13 13 -1 27 -5 30 -8 4 -4 12 -5 18 -4 7 2 9 1 4
-1 -4 -3 -4 -10 0 -16 4 -7 -1 -6 -10 2 -15 11 -17 11 -17 -2 0 -16 16 -17 39
-3 11 7 13 5 8 -7 -9 -24 0 -21 14 4 9 17 8 20 -3 13 -10 -6 -10 -5 1 9 10 13
17 15 27 6 11 -9 18 -8 29 1 12 10 18 10 30 0 11 -9 15 -9 15 -1 0 8 4 8 14
-1 8 -7 11 -17 8 -22 -3 -5 0 -6 6 -2 5 3 13 0 16 -6 4 -7 4 -3 2 9 -3 15 0
20 10 16 8 -3 14 1 14 8 0 12 2 12 9 1 4 -8 12 -14 16 -14 4 0 12 6 17 14 8
10 9 10 5 -2 -2 -8 -13 -15 -24 -15 -12 0 -25 -4 -30 -9 -5 -5 -3 -6 5 -2 7 4
12 2 12 -6 0 -11 2 -11 9 0 7 11 11 11 24 -2 14 -14 16 -14 23 2 4 9 6 23 5
30 -4 24 17 11 24 -15 6 -24 8 -26 16 -10 6 9 19 17 30 17 11 0 18 -4 14 -9
-3 -5 0 -13 6 -17 8 -4 9 -3 5 4 -3 6 2 16 13 22 13 7 22 7 26 0 4 -6 11 -8
16 -5 5 4 18 3 30 0 17 -6 18 -9 7 -23 -10 -13 -8 -13 9 1 14 12 23 15 28 7 3
-5 11 -8 16 -4 15 9 0 23 -21 19 -12 -2 -18 0 -15 5 3 5 15 7 27 5 12 -3 26 1
31 8 5 7 6 4 2 -10 -4 -16 -2 -21 11 -19 21 3 45 36 37 49 -3 6 -1 7 4 4 6 -4
9 -20 8 -37 -1 -17 1 -33 6 -35 4 -3 6 4 4 15 -2 13 1 20 11 20 8 0 14 -8 14
-17 0 -15 2 -16 9 -3 6 8 7 18 4 24 -3 5 -1 6 6 2 6 -4 8 -13 5 -19 -4 -7 -4
-9 1 -5 4 4 15 2 23 -5 13 -10 14 -9 7 2 -6 11 -4 13 8 8 8 -3 18 0 21 8 3 10
-2 12 -22 9 -15 -3 -24 -2 -20 1 3 4 12 7 20 9 7 1 18 5 25 9 6 4 14 3 18 -3
4 -6 11 -7 17 -4 6 4 9 3 6 -2 -3 -5 0 -15 8 -22 13 -12 18 -8 15 11 -1 5 3 6
9 2 5 -3 10 -1 10 6 0 7 9 2 20 -11 11 -12 17 -27 13 -33 -3 -5 -1 -7 5 -4 11
8 11 24 -2 47 -4 8 4 2 18 -13 14 -15 26 -24 26 -18 0 5 9 8 20 6 12 -2 18 0
15 6 -4 5 -11 6 -17 3 -6 -4 -5 2 2 15 9 18 30 21 30 5 0 -3 -4 -2 -10 1 -5 3
-10 2 -10 -3 0 -5 11 -14 24 -20 19 -8 27 -7 46 11 13 12 19 16 15 8 -6 -11
-4 -13 8 -8 10 4 14 2 11 -7 -3 -7 2 -13 10 -13 8 0 13 4 10 9 -3 4 0 8 5 8 6
0 11 5 11 11 0 5 -5 7 -12 3 -7 -4 -8 -3 -4 4 10 16 14 15 27 -9 6 -12 7 -19
2 -16 -5 4 -10 0 -10 -7 0 -7 6 -13 13 -13 7 0 11 4 8 9 -3 4 0 8 6 8 6 0 9 4
6 8 -3 5 1 9 9 9 8 0 11 -5 7 -11 -10 -17 -11 -37 -1 -30 5 3 6 10 3 16 -5 8
-1 9 10 5 10 -4 15 -3 11 3 -9 14 8 12 24 -2 8 -7 11 -8 8 -3 -3 6 3 17 15 24
16 10 19 10 12 -1 -13 -21 -13 -35 2 -35 7 0 10 5 7 10 -8 14 19 27 42 20 18
-5 19 -4 5 13 -14 17 -14 18 2 6 9 -8 15 -19 12 -26 -3 -7 2 -13 10 -13 8 0
12 5 9 10 -3 5 0 7 8 5 8 -3 13 -10 12 -15 -1 -5 4 -10 12 -10 11 0 11 5 4 20
-6 10 -8 21 -5 25 3 3 6 0 6 -7 0 -8 8 -10 23 -7 12 3 16 3 10 0 -7 -3 -13
-11 -13 -17 0 -5 3 -7 7 -4 3 4 13 1 22 -6 14 -10 14 -10 4 3 -7 10 -9 21 -3
30 5 9 5 20 -2 28 -9 10 -8 12 3 10 10 -2 13 6 12 27 -2 25 -1 27 6 10 7 -13
10 -15 10 -5 0 8 -4 22 -9 30 -8 13 -10 13 -10 1 0 -11 -4 -9 -16 5 -14 18
-15 18 -4 -4 6 -13 9 -28 6 -35 -2 -7 -5 -4 -5 6 -1 9 -5 17 -11 17 -5 0 -10
9 -10 20 0 11 -4 20 -10 20 -5 0 -6 -7 -3 -17 4 -11 3 -14 -6 -9 -6 4 -19 2
-28 -6 -15 -11 -16 -11 -10 4 3 10 1 20 -5 24 -7 4 -8 3 -4 -4 4 -7 3 -12 -3
-12 -5 0 -11 5 -13 11 -2 7 -9 5 -17 -5 -12 -14 -12 -16 2 -11 8 4 18 0 23 -7
4 -7 4 -10 -1 -6 -4 4 -16 3 -25 -2 -16 -8 -18 -6 -15 15 1 14 -2 28 -7 31
-11 7 0 24 15 24 8 0 8 -3 -2 -9 -9 -6 -10 -11 -2 -15 10 -6 15 6 12 27 0 4 3
7 9 7 5 0 10 5 10 11 0 5 -4 8 -9 4 -16 -9 -42 26 -36 49 2 11 2 16 -1 9 -3
-7 -13 -9 -22 -6 -15 6 -16 5 -2 -13 14 -18 14 -18 -2 -5 -15 11 -18 11 -18 0
0 -11 -2 -11 -10 1 -9 14 -15 7 -11 -14 1 -5 -5 -3 -14 4 -14 12 -16 12 -15
-1 1 -7 2 -19 1 -25 -1 -12 -81 -15 -81 -3 0 4 9 6 19 4 19 -3 23 16 7 32 -4
4 -6 1 -4 -7 2 -8 -2 -14 -9 -13 -6 2 -21 -9 -32 -24 -20 -25 -21 -25 -21 -4
0 14 4 20 12 15 6 -4 8 -3 5 4 -4 5 -16 8 -27 5 -11 -3 -17 -9 -14 -14 3 -5 0
-9 -6 -9 -7 0 -9 8 -5 19 3 11 1 22 -5 26 -6 3 -8 11 -5 16 3 5 -1 6 -9 3 -9
-3 -13 -11 -9 -18 4 -6 -1 -5 -10 2 -9 8 -22 10 -28 6 -7 -4 -9 -3 -6 3 3 5 0
10 -8 10 -11 0 -12 -5 -3 -21 l11 -21 -24 20 c-18 15 -20 16 -10 3 7 -10 10
-18 5 -18 -5 0 -3 -4 4 -9 11 -6 10 -10 -4 -15 -10 -4 -15 -4 -12 0 4 3 1 13
-7 20 -20 20 -27 17 -15 -6 10 -19 10 -20 -9 -8 -11 6 -17 16 -14 22 3 5 1 6
-6 2 -9 -6 -9 -11 0 -22 10 -12 9 -13 -5 -8 -9 3 -16 10 -16 16 0 5 -5 6 -12
2 -7 -4 -8 -3 -4 4 4 7 2 12 -4 12 -6 0 -8 5 -5 10 3 6 0 10 -8 10 -8 0 -17 7
-21 15 -3 8 -11 15 -18 14 -10 0 -10 -2 0 -6 6 -2 12 -14 12 -26 0 -20 0 -21
-16 -1 -13 16 -15 16 -10 2 3 -10 1 -18 -4 -18 -9 0 -14 14 -11 33 0 4 -4 6
-10 5 -15 -4 -20 30 -7 39 7 3 8 1 4 -5 -7 -12 -3 -13 50 -15 22 -1 30 -5 27
-14 -3 -7 0 -13 6 -13 6 0 11 6 11 13 0 8 4 7 10 -3 5 -8 10 -11 10 -6 0 5 7
3 15 -4 8 -7 15 -9 15 -5 0 4 8 1 18 -6 14 -11 15 -11 5 1 -20 22 -16 28 17
24 17 -2 30 1 30 7 0 6 -4 7 -10 4 -5 -3 -10 1 -10 10 0 9 4 13 10 10 9 -6 14
8 11 28 -1 5 3 6 8 3 5 -3 11 1 15 9 3 8 12 12 21 9 8 -3 12 -11 8 -18 -3 -6
-2 -7 3 -3 5 5 9 16 9 25 0 9 6 16 13 14 8 -1 11 2 8 7 -4 5 -3 11 1 14 5 2 2
2 -4 1 -7 -2 -13 1 -13 6 0 6 7 10 15 10 13 0 14 2 3 14 -7 8 -17 11 -22 8 -5
-3 -6 0 -2 7 8 12 30 1 48 -24 5 -6 8 -5 8 3 0 6 5 12 12 12 6 0 4 -7 -5 -18
-10 -10 -14 -22 -10 -27 5 -4 2 -5 -4 -1 -9 5 -13 1 -13 -11 0 -11 -6 -25 -12
-33 -11 -12 -10 -12 4 -1 14 10 21 8 42 -10 14 -13 26 -30 25 -38 0 -12 -3
-10 -9 4 -10 23 -13 5 -4 -19 6 -15 7 -15 19 0 7 10 17 14 24 10 9 -6 9 -11 0
-22 -16 -19 -4 -18 15 2 9 9 16 11 16 4 0 -6 5 -8 12 -4 7 4 8 3 4 -5 -4 -6
-11 -9 -16 -6 -5 3 -11 1 -15 -4 -3 -6 4 -8 16 -6 13 3 26 10 31 17 6 10 8 10
9 -2 0 -10 3 -8 9 5 l9 20 1 -20 c1 -18 2 -18 13 -4 7 9 18 14 26 11 8 -3 11
0 7 7 -5 8 0 8 17 2 22 -8 24 -7 21 15 -1 13 2 22 7 18 5 -3 9 0 9 7 0 7 3 9
6 6 4 -4 1 -14 -7 -23 -13 -16 -12 -16 8 -4 13 8 19 20 15 29 -4 13 -1 13 15
-2 14 -12 23 -15 28 -7 4 6 1 9 -7 8 -7 -2 -13 6 -13 17 0 13 6 20 17 19 10
-1 16 2 13 6 -3 4 4 19 14 32 12 15 16 29 11 38 -4 7 -6 19 -3 26 2 6 0 15 -5
18 -5 3 -8 -5 -7 -18 2 -14 -2 -23 -11 -23 -10 0 -11 4 -4 11 14 14 13 29 -2
20 -10 -6 -10 -4 0 8 11 14 10 18 -5 27 -10 6 -13 11 -8 11 6 0 22 -7 35 -16
20 -12 18 -10 -5 12 -19 17 -25 29 -17 32 6 2 12 8 12 14 0 7 -5 7 -13 -1 -8
-6 -18 -7 -22 -3 -5 4 -5 -2 -1 -13 5 -15 4 -17 -4 -9 -6 6 -12 18 -14 27 -1
8 -8 22 -14 30 -10 12 -10 17 -1 23 7 4 9 3 5 -4 -3 -6 -2 -13 4 -17 5 -3 10
0 10 7 0 10 3 9 9 -2 6 -8 7 -18 4 -23 -3 -5 0 -7 8 -5 8 3 13 12 11 21 -4 21
35 11 41 -12 3 -9 4 5 2 32 -1 26 2 50 7 53 15 10 22 -4 10 -19 -9 -10 -8 -14
3 -14 8 0 13 3 10 5 -3 3 2 17 12 31 13 21 14 24 1 13 -12 -10 -18 -10 -27 2
-6 7 -8 21 -5 30 4 11 2 16 -7 14 -8 -2 -13 3 -11 10 1 8 -2 11 -7 8 -5 -4
-13 -1 -17 5 -4 8 -12 4 -21 -12 -14 -24 -14 -24 -9 6 3 17 3 24 0 17 -3 -6
-11 -9 -16 -6 -7 4 -8 2 -4 -4 9 -15 -6 -16 -20 -2 -7 7 -11 6 -11 -4 0 -8 4
-13 8 -10 4 2 11 -1 15 -8 4 -7 4 -10 -1 -6 -4 4 -15 2 -23 -5 -9 -7 -13 -7
-9 -1 3 6 0 20 -8 30 -13 19 -14 18 -11 -1 5 -30 -2 -35 -29 -25 -16 6 -27 6
-31 -2 -4 -6 -3 -8 2 -5 6 3 16 1 24 -4 12 -8 11 -9 -5 -7 -12 2 -19 -2 -17
-10 1 -7 -5 -15 -13 -18 -8 -3 -12 -11 -8 -17 3 -6 1 -7 -5 -3 -6 4 -8 14 -5
23 5 12 3 14 -8 8 -8 -5 -4 3 9 17 12 13 19 28 15 32 -5 4 -3 6 2 5 16 -5 55
11 55 22 0 6 -8 5 -21 -1 -11 -7 -23 -10 -25 -7 -2 2 7 10 21 17 23 12 24 15
10 30 -13 14 -13 17 0 17 8 0 12 -4 9 -9 -3 -4 0 -8 5 -8 14 0 14 17 1 25 -6
4 -8 10 -5 15 3 5 -4 14 -15 20 -11 6 -18 15 -15 19 2 5 -3 15 -13 22 -15 13
-16 12 -3 -3 14 -19 7 -23 -28 -19 -7 2 -10 -2 -6 -8 4 -7 0 -8 -10 -4 -13 5
-14 7 -3 14 11 7 11 9 0 9 -8 0 -16 -9 -19 -20 -3 -11 -9 -17 -14 -14 -5 3 -6
10 -3 16 5 7 2 8 -5 4 -7 -5 -10 -15 -7 -23 4 -9 2 -11 -6 -7 -8 5 -9 2 -4
-11 6 -16 4 -16 -11 -4 -15 13 -16 12 -11 -8 4 -13 1 -26 -4 -30 -6 -3 -8 -1
-4 5 3 6 2 13 -3 17 -10 6 -7 -27 4 -44 3 -5 1 -12 -4 -16 -5 -3 -8 -14 -6
-25 2 -12 0 -18 -5 -15 -9 6 -8 24 3 43 5 7 4 12 -2 12 -10 0 -13 -7 -10 -26
0 -4 -5 -11 -13 -15 -8 -5 -9 -9 -2 -9 7 0 14 -9 17 -19 3 -14 1 -18 -9 -14
-8 3 -14 9 -14 14 0 6 -6 4 -14 -3 -8 -7 -12 -17 -9 -21 3 -5 -4 -3 -16 5 -22
14 -26 24 -13 32 13 8 7 89 -7 94 -6 2 -9 7 -7 11 3 4 -1 8 -9 8 -8 0 -12 -4
-9 -9 3 -4 0 -8 -5 -8 -6 0 -11 7 -11 16 0 8 -4 12 -10 9 -5 -3 -10 0 -10 7 0
9 -3 10 -8 2 -4 -6 -15 -10 -25 -8 -9 1 -15 -2 -12 -6 3 -5 14 -7 25 -5 11 2
20 0 20 -6 0 -10 -41 -5 -61 7 -8 4 -9 3 -5 -4 4 -7 2 -12 -4 -12 -6 0 -8 -5
-4 -12 4 -7 3 -8 -4 -4 -6 4 -9 13 -5 21 3 8 1 15 -5 15 -6 0 -8 -14 -5 -32 4
-30 3 -31 -9 -15 -13 18 -15 18 -29 1 -7 -10 -9 -15 -4 -12 6 4 17 -2 23 -13
12 -18 11 -19 -7 -10 -25 14 -42 14 -18 0 19 -11 23 -30 6 -27 -6 2 -13 -3
-14 -10 -2 -7 -1 -8 2 -2 3 7 10 7 21 -2 10 -8 13 -9 9 -1 -4 6 -3 14 2 17 5
4 8 -2 7 -11 -2 -10 -9 -18 -16 -18 -7 0 -15 -6 -18 -14 -3 -8 0 -11 6 -8 6 4
9 -5 8 -22 0 -16 -4 -27 -8 -25 -3 2 -10 -1 -14 -7 -5 -8 -9 -7 -15 2 -4 7 -3
19 2 26 13 15 -7 57 -23 47 -7 -5 -5 -12 7 -20 10 -8 16 -17 12 -20 -10 -11
-39 25 -33 41 3 8 1 16 -4 16 -6 1 -14 3 -20 4 -5 1 -13 3 -16 4 -4 0 0 9 7
19 11 14 11 15 -1 5 -16 -15 -34 -17 -25 -4 3 6 -6 8 -20 5 -14 -2 -25 0 -25
6 0 6 -4 8 -10 5 -5 -3 -10 -11 -10 -16 0 -6 5 -7 10 -4 6 3 10 1 10 -6 0 -8
5 -7 17 2 15 12 16 12 8 -1 -4 -8 -5 -12 0 -8 10 10 45 -10 45 -25 0 -8 -3 -8
-9 2 -5 7 -21 15 -37 16 -47 6 -77 14 -83 23 -10 15 -40 10 -34 -6 5 -11 7
-11 15 0 8 11 9 10 6 -1 -5 -17 -35 -23 -45 -9 -3 7 -1 8 5 4 18 -11 14 0 -5
15 -14 12 -16 12 -8 0 6 -11 4 -13 -8 -8 -19 7 -32 -8 -16 -19 8 -5 9 -3 4 7
-8 12 -6 12 8 0 18 -15 23 -26 7 -16 -5 3 -10 0 -10 -7 0 -10 -3 -9 -10 2 -7
12 -13 12 -33 1 -29 -15 -54 -6 -38 13 6 7 7 17 3 21 -4 5 -2 5 4 2 7 -4 17 0
24 8 7 8 17 12 23 8 6 -3 7 -1 3 5 -5 9 -13 9 -28 1 -19 -10 -19 -9 3 20 12
17 25 28 29 26 4 -2 7 2 7 9 0 7 -6 13 -13 13 -7 0 -10 -5 -7 -10 4 -6 1 -7
-7 -2 -10 6 -6 13 14 27 l26 20 -20 25 c-11 14 -17 30 -14 35 4 6 -4 4 -17 -2
-24 -13 -24 -13 -6 8 14 15 15 22 6 28 -7 4 -10 3 -6 -3 4 -6 0 -14 -9 -17
-12 -5 -15 -2 -10 11 6 15 4 14 -16 -2 -13 -11 -17 -13 -10 -5 18 21 15 35 -5
19 -15 -12 -16 -12 -10 4 5 13 3 16 -6 10 -6 -4 -22 -7 -34 -8 -12 0 -25 -4
-30 -9 -5 -5 -3 -6 5 -2 6 4 12 2 12 -3 0 -14 -16 -14 -40 -1 -16 8 -18 8 -14
-5 4 -8 1 -15 -7 -15 -7 0 -9 -3 -6 -6 4 -4 12 -2 20 4 8 7 18 8 27 1 12 -8
11 -9 -5 -7 -13 2 -21 -4 -23 -17 -2 -11 -11 -26 -20 -33 -16 -12 -16 -14 2
-27 10 -8 16 -21 13 -29 -3 -8 -1 -16 6 -19 6 -2 4 -6 -5 -10 -13 -4 -16 -1
-12 19 2 13 0 24 -5 24 -5 0 -8 -8 -6 -17 1 -10 0 -22 -3 -28 -11 -17 -11 -65
-1 -65 6 0 7 -5 4 -10 -4 -6 -11 -8 -16 -5 -5 4 -5 -4 1 -19 7 -20 6 -24 -5
-19 -8 3 -15 0 -15 -6 0 -6 5 -11 10 -11 6 0 10 -5 10 -11 0 -6 -8 -8 -17 -5
-15 5 -14 3 2 -10 16 -13 16 -15 3 -11 -10 3 -20 2 -23 -3 -4 -6 -1 -10 4 -10
6 0 11 -10 11 -22 0 -23 -1 -23 -14 2 -7 14 -9 29 -5 34 4 5 3 18 -3 30 -6 12
-11 23 -10 26 1 3 -2 5 -7 5 -5 0 -13 4 -18 9 -5 5 -3 6 5 2 7 -4 15 -1 18 8
6 16 24 12 24 -5 0 -6 -5 -7 -12 -3 -7 5 -8 3 -3 -5 5 -8 11 -9 17 -3 6 6 5
17 -4 31 -14 22 -30 28 -25 10 1 -6 -4 -13 -11 -15 -7 -1 -8 0 -2 3 7 3 7 10
-2 21 -8 10 -9 13 -1 9 6 -4 14 -3 18 3 3 5 -1 10 -10 10 -9 0 -14 4 -10 9 3
5 1 12 -4 16 -6 3 -7 13 -4 22 4 11 3 14 -5 9 -8 -5 -10 -2 -6 9 6 14 8 14 19
-1 10 -15 12 -15 12 -1 0 17 -23 31 -37 22 -5 -3 -7 7 -4 22 3 16 9 30 15 31
5 2 6 8 3 13 -3 6 -12 2 -19 -8 -11 -14 -16 -16 -26 -5 -11 10 -11 14 0 25 10
10 11 9 6 -5 -4 -10 -3 -18 3 -18 9 0 9 20 2 40 -1 3 -2 9 -1 13 1 5 -3 6 -8
3 -5 -3 -12 2 -15 11 -6 14 -8 14 -22 -3 -9 -10 -13 -13 -9 -6 3 6 1 12 -5 12
-6 0 -9 4 -6 8 3 5 -1 9 -8 9 -7 0 -13 -6 -13 -13 0 -7 3 -11 7 -9 4 2 7 -2 7
-9 0 -7 -6 -13 -13 -13 -7 0 -13 3 -12 6 2 18 -3 31 -12 31 -5 0 -7 -6 -4 -14
3 -8 0 -17 -7 -22 -7 -4 -10 -3 -6 3 4 6 1 13 -7 16 -9 4 -12 0 -9 -13 3 -10
-1 -21 -8 -25 -7 -5 -10 -4 -5 3 4 6 -1 10 -13 9 -14 -1 -17 -5 -10 -13 7 -8
6 -15 -2 -20 -7 -4 -9 -3 -5 4 4 7 -1 10 -14 9 -26 -2 -25 -11 2 -24 19 -8 20
-10 4 -16 -10 -4 -15 -3 -11 3 3 6 2 10 -4 10 -5 0 -9 -18 -7 -41 2 -28 -1
-42 -11 -46 -11 -4 -10 -8 4 -19 10 -7 14 -14 8 -14 -5 0 -3 -5 5 -10 9 -6 10
-10 3 -10 -7 0 -16 7 -21 17 -8 13 -10 11 -9 -10 0 -15 3 -24 8 -22 4 3 7 -3
6 -14 -1 -14 -5 -17 -13 -10 -8 7 -15 6 -20 -2 -4 -8 -3 -9 4 -5 12 7 13 4 16
-31 1 -27 -54 -23 -82 5 -12 13 -22 29 -21 35 1 7 -1 20 -6 30 -6 14 -10 15
-21 6 -11 -9 -14 -9 -14 1 0 6 -6 10 -12 7 -7 -2 -21 0 -32 5 -12 7 -16 7 -12
0 4 -7 -9 -9 -34 -8 -24 2 -37 -1 -33 -7 4 -6 0 -8 -10 -4 -9 3 -19 1 -23 -5
-5 -7 -12 -5 -21 7 -7 11 -13 14 -13 8 0 -7 5 -15 11 -18 7 -5 4 -14 -7 -26
-13 -15 -14 -19 -3 -19 8 0 3 -6 -11 -13 -14 -7 -25 -19 -25 -27 -1 -20 -26
-14 -48 12 -18 21 -18 22 4 39 12 9 30 14 40 12 11 -3 19 0 19 6 0 7 -5 9 -12
5 -7 -4 -8 -3 -4 5 6 9 11 9 22 0 12 -10 13 -9 8 5 -4 10 1 25 11 36 10 11 15
20 11 20 -3 0 1 11 9 24 15 23 15 25 -2 35 -10 6 -13 11 -7 11 21 0 33 -22 23
-44 -10 -20 -10 -20 5 -2 14 17 14 22 -3 50 -10 17 -16 37 -13 45 3 8 0 11 -7
7 -7 -5 -9 -1 -5 9 4 11 2 14 -9 9 -8 -3 -18 0 -23 7 -4 7 -3 10 3 6 5 -3 10
0 10 8 0 10 -4 12 -12 5 -7 -5 -14 -8 -17 -5 -3 3 -11 -3 -19 -12 -13 -16 -12
-17 2 -5 14 10 18 10 22 -1 6 -15 -39 -17 -63 -2 -8 5 -11 4 -7 -2 4 -6 0 -19
-8 -29 -13 -18 -14 -18 -24 6 -9 23 -10 23 -8 -10 1 -22 -3 -35 -10 -35 -7 0
-18 -9 -26 -19 -11 -16 -15 -16 -22 -5 -5 8 -5 11 0 7 5 -5 15 1 22 12 8 11
19 18 24 15 5 -4 6 2 2 11 -4 11 -8 13 -11 6 -2 -7 -8 -10 -13 -6 -5 3 -8 0
-7 -8 2 -7 -4 -12 -13 -12 -10 1 -16 -5 -14 -15 4 -24 -5 -33 -21 -20 -10 8
-14 8 -14 0 0 -6 -4 -11 -10 -11 -6 0 -6 9 1 26 5 15 7 29 4 32 -3 3 -5 0 -5
-7 0 -7 -5 -9 -12 -5 -8 5 -2 12 17 20 19 8 23 13 13 14 -20 0 -25 20 -6 20 6
0 8 3 4 7 -4 5 -15 -1 -23 -12 -12 -16 -14 -16 -10 -3 4 11 -1 22 -11 28 -15
10 -15 10 3 6 11 -3 27 -1 35 5 12 8 9 9 -9 4 -14 -4 -21 -3 -18 2 3 5 -3 17
-14 26 -11 10 -17 22 -14 28 4 5 1 8 -7 7 -7 -2 -12 2 -11 9 2 8 -4 10 -14 6
-11 -4 -13 -8 -5 -11 7 -2 10 -8 6 -13 -3 -5 -2 -8 3 -7 4 2 18 -7 31 -19 12
-13 18 -23 14 -23 -4 0 -13 5 -20 12 -9 9 -12 9 -12 0 0 -7 -5 -12 -12 -12 -9
0 -9 3 0 12 14 14 16 32 3 23 -5 -3 -12 -1 -16 4 -3 6 -13 8 -23 5 -14 -5 -15
-4 -2 5 13 9 13 11 0 11 -12 0 -12 2 -1 9 9 6 5 9 -14 9 -19 0 -23 -3 -14 -9
11 -7 10 -9 -3 -9 -16 0 -22 10 -20 30 0 3 -9 7 -20 7 -20 2 -20 1 -2 -12 11
-7 16 -17 11 -21 -4 -4 -7 -2 -7 6 0 10 -4 10 -17 -1 -13 -11 -15 -11 -9 -1 5
9 3 13 -5 11 -33 -4 -50 1 -43 14 4 6 -3 3 -15 -7 -30 -27 -63 -29 -55 -4 3
10 2 18 -1 18 -4 0 -9 -10 -12 -21z m-23 -19 c0 -5 -5 -10 -11 -10 -5 0 -7 5
-4 10 3 6 8 10 11 10 2 0 4 -4 4 -10z m-107 -35 c4 -8 1 -17 -5 -21 -7 -4 -8
-3 -4 4 4 7 2 12 -4 12 -6 0 -8 5 -5 10 8 14 12 13 18 -5z m1532 -24 c3 -5 0
-13 -6 -17 -7 -4 -9 -3 -5 4 3 5 0 13 -6 15 -9 4 -10 6 -1 6 6 1 14 -3 18 -8z
m-265 -16 c11 -13 10 -14 -4 -9 -9 3 -16 10 -16 15 0 13 6 11 20 -6z m383 -77
c-2 -5 -10 -8 -16 -7 -9 0 -9 2 0 6 10 3 9 8 -2 20 -8 8 -15 19 -15 25 0 6 9
0 19 -13 11 -13 17 -27 14 -31z m-1433 -22 c0 6 -5 15 -10 20 -7 7 -6 11 5 11
8 0 15 -4 15 -9 0 -4 5 -8 11 -8 5 0 7 5 4 10 -3 6 -1 10 4 10 6 0 11 -3 12
-7 0 -5 2 -18 5 -30 4 -23 -19 -38 -39 -26 -7 4 -6 -1 2 -10 7 -9 18 -14 24
-10 6 3 7 1 3 -5 -4 -7 -14 -12 -22 -12 -8 0 -13 -3 -11 -7 1 -5 -2 -9 -8 -10
-5 -1 -9 8 -8 20 1 18 -1 17 -10 -5 -6 -16 -15 -28 -20 -28 -4 0 -6 -4 -3 -8
3 -5 0 -9 -7 -9 -7 0 -13 8 -13 18 0 11 6 15 16 11 13 -5 13 -3 1 11 -12 15
-9 21 12 18 4 0 7 5 7 13 0 8 3 22 6 30 4 11 2 15 -7 13 -8 -2 -11 -2 -7 0 4
2 4 12 1 21 -4 11 2 8 15 -7 12 -13 22 -20 22 -15z m1235 24 c-3 -5 -12 -10
-18 -10 -7 0 -6 4 3 10 19 12 23 12 15 0z m993 -16 c2 -1 -4 -4 -12 -7 -9 -4
-15 -1 -13 6 1 7 -4 11 -11 9 -8 -1 -11 2 -7 8 5 8 12 7 23 -2 10 -7 18 -13
20 -14z m-1352 -9 c-1 -8 -5 -17 -8 -21 -5 -4 -4 16 1 34 3 9 9 -1 7 -13z
m-582 -42 c-8 -8 -12 -18 -9 -22 2 -5 -7 -6 -20 -3 -14 2 -22 9 -18 15 3 6 1
7 -6 3 -6 -4 -8 -13 -5 -19 4 -7 3 -8 -1 -4 -11 9 -16 39 -6 33 4 -3 13 -1 20
3 7 5 24 9 37 9 20 0 21 -2 8 -15z m1551 7 c3 -5 1 -10 -4 -10 -6 0 -11 5 -11
10 0 6 2 10 4 10 3 0 8 -4 11 -10z m104 -4 c8 -10 9 -16 1 -21 -6 -4 -9 -1 -8
7 2 8 -5 12 -17 10 -16 -2 -17 -1 -5 7 19 13 15 14 29 -3z m-1079 -6 c0 -5 -5
-10 -11 -10 -5 0 -7 5 -4 10 3 6 8 10 11 10 2 0 4 -4 4 -10z m352 -28 c-9 -3
-10 -8 -3 -16 8 -9 7 -13 -2 -13 -7 0 -13 10 -13 23 0 15 4 20 15 16 11 -4 11
-7 3 -10z m-946 -25 c2 -14 -1 -15 -19 -5 -21 11 -21 10 -7 -7 12 -15 12 -17
1 -10 -11 6 -13 4 -8 -8 3 -10 2 -17 -4 -17 -6 0 -7 -4 -4 -10 4 -6 -3 -6 -21
0 -23 9 -25 9 -15 -4 14 -16 6 -40 -10 -30 -5 3 -7 9 -4 14 3 4 -3 14 -13 21
-15 12 -16 12 -4 -2 10 -13 9 -19 -3 -29 -9 -7 -18 -10 -22 -6 -3 3 -1 6 6 6
7 0 9 5 6 10 -4 6 -10 8 -15 5 -5 -3 -12 0 -16 6 -4 7 -3 9 3 6 6 -4 16 0 23
8 7 8 17 12 23 8 6 -4 8 0 4 10 -4 10 -2 16 6 14 7 -1 11 7 10 18 -1 11 0 14
3 8 3 -7 13 -13 22 -12 11 0 12 2 5 6 -24 9 -13 21 19 19 21 -1 32 -7 34 -19z
m331 -18 c-8 -13 -13 -15 -19 -6 -5 8 -11 8 -15 2 -5 -5 -12 -11 -18 -12 -5
-1 -19 -5 -30 -9 -20 -7 -20 -7 -1 14 10 12 23 19 27 16 5 -3 16 -1 25 4 28
16 44 11 31 -9z m81 1 c3 -9 -1 -11 -14 -5 -11 4 -24 8 -31 8 -7 0 -10 3 -8 7
7 12 49 4 53 -10z m1696 -9 c-4 -3 -9 0 -11 7 -3 6 -10 9 -15 6 -7 -4 -8 -2
-4 5 6 9 11 9 22 0 8 -6 12 -15 8 -18z m-1660 10 c3 -5 0 -11 -7 -14 -8 -3
-14 1 -14 9 0 16 13 19 21 5z m953 -33 c-3 -8 -6 -5 -6 6 -1 11 2 17 5 13 3
-3 4 -12 1 -19z m-287 -12 c0 -2 -7 -7 -16 -10 -8 -3 -12 -2 -9 4 6 10 25 14
25 6z m763 -20 c4 -11 1 -13 -10 -9 -11 4 -14 2 -9 -5 5 -8 1 -10 -11 -5 -15
5 -16 3 -5 -8 6 -7 12 -18 12 -23 0 -6 -5 -4 -11 4 -8 12 -9 9 -5 -12 4 -17 2
-28 -4 -28 -6 0 -9 4 -6 9 3 5 -1 14 -8 20 -10 9 -16 9 -21 1 -4 -6 -1 -9 7
-8 9 2 12 -7 11 -29 -1 -18 3 -33 8 -33 5 0 8 5 7 11 -2 6 4 14 12 16 13 4 13
3 0 -6 -8 -6 -11 -11 -5 -11 5 0 4 -5 -2 -11 -6 -6 -9 -18 -6 -27 4 -10 2 -13
-8 -10 -8 3 -13 12 -11 19 1 8 -4 6 -13 -5 -8 -10 -12 -23 -9 -27 3 -5 -2 -9
-11 -9 -10 0 -13 5 -9 13 4 7 3 9 -2 4 -5 -5 -9 -12 -9 -15 0 -4 -4 -13 -9
-20 -7 -12 -4 -12 15 -2 22 10 23 10 5 -4 -15 -12 -23 -13 -40 -4 -11 7 -26
11 -32 10 -7 -1 -15 5 -18 14 -6 15 -4 15 11 3 16 -12 17 -12 6 2 -7 9 -11 18
-8 21 3 2 -14 3 -37 1 -39 -3 -41 -2 -23 12 13 10 15 14 5 12 -8 -2 -12 -2 -7
0 4 3 5 9 2 13 -3 5 0 12 6 16 8 4 9 3 5 -4 -4 -7 -2 -12 3 -12 6 0 11 5 11
10 0 6 5 10 10 10 7 0 7 -6 1 -18 -7 -14 -6 -19 4 -19 7 0 11 6 8 14 -3 7 2
16 11 19 9 3 13 10 10 15 -3 5 2 6 10 3 9 -3 13 -11 10 -18 -3 -6 7 3 22 19
15 17 32 29 37 27 4 -1 6 2 2 8 -4 6 -12 5 -25 -2 -10 -7 -16 -16 -13 -22 4
-5 1 -6 -7 -1 -9 6 -11 4 -5 -5 6 -9 4 -11 -5 -5 -10 6 -9 12 7 24 11 9 18 23
16 31 -3 10 -2 11 4 4 4 -6 22 -10 40 -10 34 1 58 16 27 17 -14 0 -12 3 9 11
15 5 27 14 27 19 0 14 17 10 23 -5z m-1942 -23 c8 2 10 2 5 -1 -4 -2 -2 -8 5
-13 12 -7 12 -9 0 -9 -11 0 -11 -3 0 -17 12 -14 12 -16 0 -8 -11 6 -13 4 -8
-8 3 -9 1 -19 -6 -23 -7 -4 -9 -4 -5 1 11 12 -11 47 -25 39 -9 -5 -8 -3 1 7
17 18 15 34 -2 20 -12 -10 -13 -8 -9 9 4 15 9 18 18 10 7 -6 19 -9 26 -7z
m-504 -11 c0 -10 -6 -19 -13 -19 -9 0 -11 13 -5 35 1 1 5 2 10 2 6 0 9 -8 8
-18z m727 -17 c-3 -7 -12 -16 -20 -19 -9 -3 -12 -11 -9 -16 4 -6 1 -9 -6 -8
-7 2 -13 -6 -14 -16 0 -11 -7 -21 -15 -23 -12 -4 -13 -3 -1 5 7 5 11 14 8 20
-4 5 2 17 13 27 16 14 17 21 8 32 -9 11 -9 16 2 23 18 11 41 -6 34 -25z m386
16 c0 -4 -3 -11 -7 -14 -8 -9 -34 13 -28 24 6 9 35 1 35 -10z m704 -23 c-3 -4
-11 -5 -19 -1 -21 7 -19 12 4 10 11 0 18 -5 15 -9z m236 2 c0 -5 -5 -10 -11
-10 -5 0 -7 5 -4 10 3 6 8 10 11 10 2 0 4 -4 4 -10z m-305 -18 c-3 -3 -11 0
-18 7 -9 10 -8 11 6 5 10 -3 15 -9 12 -12z m-832 1 c4 -3 3 -11 -2 -17 -6 -6
-11 -23 -13 -36 -2 -14 -7 -31 -11 -37 -5 -8 -3 -13 5 -14 10 0 10 -2 0 -6 -6
-2 -9 -10 -5 -16 4 -7 -1 -6 -10 2 -14 11 -17 11 -17 -1 0 -8 5 -19 10 -24 8
-8 7 -14 -3 -23 -11 -9 -17 -8 -27 4 -9 11 -9 15 -1 15 7 0 9 5 6 10 -4 6 -11
7 -17 4 -7 -4 -8 -2 -4 5 4 6 11 9 16 6 5 -3 7 8 5 25 -2 20 0 28 7 24 8 -5 9
-1 5 10 -5 12 -2 16 10 14 9 -2 18 4 20 12 4 12 3 12 -5 1 -7 -9 -12 -10 -16
-2 -4 6 -3 11 3 11 5 0 13 9 16 20 6 20 16 25 28 13z m178 -16 c-10 -9 -11 -8
-5 6 3 10 9 15 12 12 3 -3 0 -11 -7 -18z m556 9 c-1 -6 4 -10 11 -8 8 1 11 -2
6 -9 -5 -8 -2 -10 8 -7 8 4 15 0 15 -8 0 -7 -4 -11 -9 -8 -20 12 -55 10 -55
-3 0 -9 8 -11 21 -8 19 5 19 5 -2 -8 -12 -7 -20 -16 -17 -20 3 -4 2 -5 -2 -2
-3 3 -13 -3 -21 -13 -8 -9 -6 -4 3 12 16 26 16 28 1 23 -15 -6 -15 -4 0 18 9
14 21 25 26 25 5 0 6 5 3 10 -4 6 -11 7 -17 4 -6 -4 -8 -3 -5 3 8 13 36 12 34
-1z m-1389 -20 c16 -8 33 -12 38 -8 5 4 3 0 -2 -8 -6 -8 -12 -23 -13 -32 -3
-42 -5 -46 -19 -40 -10 3 -13 1 -8 -6 7 -12 -14 -52 -28 -52 -5 0 -1 9 9 20
17 19 17 19 -9 7 -14 -7 -24 -18 -21 -25 3 -7 0 -10 -6 -7 -5 4 -17 1 -25 -6
-8 -7 -14 -8 -12 -2 2 6 -8 20 -22 31 -14 12 -19 21 -12 22 6 0 12 -4 12 -10
0 -11 29 -14 31 -2 6 32 5 51 -2 46 -4 -2 -6 -11 -3 -18 3 -8 0 -17 -7 -22 -9
-5 -10 -2 -6 9 4 10 1 17 -6 17 -8 0 -8 3 2 9 8 5 11 16 8 25 -7 19 9 31 19
15 5 -8 3 -9 -7 -4 -8 5 -10 4 -6 0 4 -5 14 -10 22 -11 11 -2 12 2 2 17 -6 10
-16 19 -22 20 -5 0 0 4 13 10 13 5 21 13 17 18 -8 13 26 6 63 -13z m1011 8 c4
3 8 -6 9 -20 1 -13 -3 -24 -8 -24 -5 0 -7 8 -4 18 5 14 4 14 -4 2 -6 -8 -8
-18 -6 -22 3 -4 1 -8 -4 -8 -5 0 -9 -7 -9 -16 0 -14 2 -15 11 -2 12 16 46 20
46 5 0 -5 -7 -7 -14 -4 -11 4 -13 1 -9 -10 5 -12 3 -14 -8 -8 -12 8 -12 6 -1
-8 8 -9 11 -21 8 -26 -4 -6 5 -8 21 -6 16 2 22 2 16 -1 -20 -9 -16 -34 5 -27
14 5 14 3 -3 -11 -17 -15 -18 -17 -2 -12 10 3 16 2 12 -3 -3 -5 1 -12 7 -15 7
-3 2 -3 -12 0 -24 6 -24 6 -5 -9 11 -8 24 -13 29 -10 5 4 6 1 2 -5 -3 -6 2
-15 11 -21 12 -7 14 -10 4 -11 -8 0 -19 7 -25 15 -7 9 -16 12 -25 6 -9 -6 -10
-11 -2 -15 6 -4 11 -3 11 3 0 5 11 0 25 -13 16 -15 23 -30 20 -45 -2 -12 0
-19 6 -16 5 4 6 12 3 18 -5 8 -3 8 7 0 7 -7 17 -13 22 -13 4 0 5 6 1 13 -6 9
-5 9 8 0 8 -7 19 -9 23 -5 5 4 5 1 1 -6 -4 -7 -12 -9 -18 -6 -8 5 -9 1 -4 -11
5 -15 4 -16 -8 -6 -11 9 -20 10 -35 1 -12 -6 -21 -13 -21 -15 0 -8 24 -1 31 9
4 4 9 4 12 0 3 -5 -1 -15 -9 -22 -10 -9 -14 -9 -14 -1 0 8 -5 7 -17 -2 -11
-10 -14 -10 -9 -1 5 8 1 12 -10 12 -16 0 -15 2 2 21 19 22 19 22 -6 9 -17 -9
-25 -10 -28 -1 -2 6 -11 11 -20 11 -15 0 -15 2 -2 11 13 9 12 10 -2 5 -10 -3
-22 2 -27 12 -6 9 -11 12 -11 7 0 -6 6 -17 13 -24 10 -11 7 -12 -13 -6 -24 7
-24 7 -5 -9 19 -14 19 -15 -10 -10 -29 5 -29 5 -10 -11 17 -14 17 -16 3 -11
-12 3 -18 0 -18 -9 0 -8 -5 -15 -11 -15 -6 0 -8 9 -4 23 6 22 6 21 -8 -2 -11
-19 -15 -20 -20 -8 -3 9 -14 14 -24 13 -14 -3 -18 3 -18 25 0 18 4 25 9 19 16
-16 29 -11 22 8 -4 10 2 7 13 -8 11 -14 23 -21 27 -17 4 4 2 7 -3 7 -13 0 -11
25 2 37 4 4 5 2 1 -4 -5 -9 0 -12 18 -11 13 1 22 6 20 10 -3 5 -10 6 -15 3 -5
-4 -9 1 -9 9 0 10 6 13 15 10 13 -5 13 -2 1 28 -9 21 -11 39 -6 48 5 8 5 19 0
25 -6 8 -5 12 4 12 14 0 14 -25 0 -50 -5 -9 -4 -9 6 -1 6 7 14 29 16 50 2 24
0 34 -5 26 -7 -11 -9 -11 -14 2 -4 9 -1 15 6 13 6 -1 12 11 12 28 1 17 6 39
12 50 6 11 9 26 7 33 -1 7 0 8 3 2 2 -5 8 -8 12 -6z m766 -5 c-4 -5 -12 -9
-18 -8 -9 0 -8 2 1 6 6 2 9 10 6 15 -4 7 -2 8 5 4 6 -4 9 -12 6 -17z m-2064
-8 c-6 -10 -7 -21 -3 -25 3 -4 -2 -4 -11 0 -17 6 -17 8 -1 25 22 24 27 24 15
0z m2449 -53 c0 -24 -20 -63 -20 -40 0 6 -6 12 -14 12 -8 0 -16 -6 -19 -12 -3
-7 -4 -3 -4 9 1 16 7 21 22 20 14 -1 20 4 19 16 -1 9 2 17 7 17 5 0 9 -10 9
-22z m-2460 8 c0 -3 -4 -8 -10 -11 -5 -3 -10 -1 -10 4 0 6 5 11 10 11 6 0 10
-2 10 -4z m700 0 c0 -3 -4 -8 -10 -11 -5 -3 -10 -1 -10 4 0 6 5 11 10 11 6 0
10 -2 10 -4z m1336 -33 c-5 -11 -2 -13 9 -9 9 3 13 2 10 -4 -12 -19 -33 -10
-31 14 0 13 5 22 9 19 5 -3 6 -12 3 -20z m-205 -2 c-6 -10 -8 -21 -5 -23 2 -3
-2 -10 -10 -17 -11 -9 -15 -8 -19 3 -4 11 -1 13 11 9 9 -3 14 -3 10 2 -7 7 8
45 18 45 2 0 0 -8 -5 -19z m429 -6 c-6 -8 -19 -11 -27 -8 -11 4 -14 2 -9 -5
11 -18 0 -14 -15 5 -8 9 -9 14 -2 10 6 -4 14 -1 16 5 4 10 8 9 16 -2 10 -14
16 -7 12 13 -1 5 3 6 9 2 8 -5 8 -11 0 -20z m-925 5 c-3 -5 -1 -10 6 -10 7 0
10 -3 6 -6 -9 -9 -28 6 -22 17 4 5 8 9 11 9 3 0 2 -4 -1 -10z m289 -30 c-5 -5
-10 3 -11 18 -1 22 0 24 9 8 6 -10 6 -22 2 -26z m-934 20 c0 -5 -5 -10 -11
-10 -5 0 -7 5 -4 10 3 6 8 10 11 10 2 0 4 -4 4 -10z m1787 -10 c-1 -11 -5 -20
-9 -20 -4 0 -8 9 -8 20 0 11 4 20 9 20 6 0 9 -9 8 -20z m33 -15 c7 -8 9 -15 5
-15 -4 0 -2 -6 4 -14 10 -12 9 -14 -6 -12 -10 2 -22 -2 -26 -8 -6 -7 -7 -4 -3
7 3 10 0 17 -7 17 -7 0 -4 7 6 14 14 11 15 15 5 19 -8 3 -8 6 -2 6 6 1 17 -6
24 -14z m-476 -10 c-4 -8 -8 -15 -10 -15 -2 0 -4 7 -4 15 0 8 4 15 10 15 5 0
7 -7 4 -15z m-1514 1 c0 -3 -4 -8 -10 -11 -5 -3 -10 -1 -10 4 0 6 5 11 10 11
6 0 10 -2 10 -4z m1266 -11 c-1 -8 -5 -17 -8 -21 -5 -4 -4 16 1 34 3 9 9 -1 7
-13z m934 11 c0 -2 -7 -9 -15 -16 -12 -10 -15 -10 -15 4 0 9 7 16 15 16 8 0
15 -2 15 -4z m-1641 -19 c8 -10 7 -14 -2 -14 -8 0 -14 6 -14 14 0 7 1 13 2 13
2 0 8 -6 14 -13z m-594 -7 c-3 -5 -2 -10 3 -10 5 0 9 -7 9 -15 0 -8 -5 -11
-10 -8 -5 3 -7 0 -5 -8 3 -8 11 -13 17 -11 17 3 13 -15 -5 -22 -8 -3 -12 -2
-9 3 3 5 1 12 -4 15 -17 11 -21 -11 -5 -24 8 -7 13 -19 10 -26 -3 -9 0 -11 11
-7 12 5 14 2 9 -8 -4 -8 3 -3 15 11 14 16 20 19 16 8 -8 -22 12 -35 25 -17 8
12 9 11 5 -1 -2 -9 -14 -14 -26 -13 -13 2 -20 -1 -16 -7 9 -15 36 -12 55 5 14
13 17 13 17 0 0 -8 -5 -12 -11 -9 -6 3 7 -11 29 -32 22 -20 34 -34 27 -30 -7
4 -20 2 -28 -5 -12 -10 -13 -9 -9 4 4 8 1 18 -6 23 -7 4 -10 3 -6 -3 4 -6 1
-13 -7 -16 -11 -4 -13 1 -11 21 2 15 2 21 -1 14 -3 -6 -9 -10 -14 -7 -4 3 -7
-3 -6 -12 1 -13 -8 -17 -39 -18 -22 -1 -46 3 -52 8 -9 6 -13 5 -13 -4 0 -8 -6
-6 -16 7 -15 19 -16 19 -9 -1 3 -11 3 -16 -1 -13 -4 4 -15 3 -25 -2 -12 -7
-20 -6 -25 2 -4 7 -4 10 1 6 10 -9 35 10 35 25 0 6 -7 2 -15 -9 -8 -10 -15
-15 -15 -10 0 5 -8 2 -17 -5 -10 -7 -15 -10 -11 -5 4 5 1 15 -7 23 -11 11 -19
11 -35 3 -11 -6 -20 -13 -20 -16 0 -3 5 -2 12 2 7 4 8 3 4 -4 -5 -9 -15 -8
-35 3 -16 8 -32 11 -36 7 -5 -4 -5 -1 -1 6 4 7 11 10 15 8 4 -3 13 0 21 6 12
8 12 9 -2 4 -10 -3 -20 -1 -23 4 -4 6 -1 10 5 10 7 0 20 10 29 22 14 17 18 18
18 5 0 -9 -4 -14 -9 -11 -4 3 -8 0 -8 -5 0 -6 5 -11 11 -11 5 0 7 -5 3 -12 -4
-7 -3 -8 5 -4 6 4 9 11 6 16 -3 5 -1 11 5 15 6 4 8 10 6 14 -3 4 1 8 9 8 8 0
12 -4 9 -9 -3 -4 0 -8 6 -8 6 0 15 10 20 23 8 20 9 20 10 2 0 -15 2 -17 9 -6
5 7 13 11 18 8 5 -3 10 0 10 7 0 8 -7 12 -16 9 -12 -3 -12 -2 2 7 22 14 38 5
30 -18 -7 -18 -5 -17 17 12 8 11 10 17 4 13 -7 -4 -14 0 -17 8 -4 10 -1 12 11
8 15 -6 16 -5 2 13 -14 17 -14 18 1 6 13 -10 19 -10 28 2 6 8 11 18 10 22 -2
14 0 24 7 24 3 0 2 -4 -1 -10z m1819 -22 c-3 -4 -11 -8 -17 -7 -9 0 -9 2 0 5
7 3 9 13 6 22 -4 14 -3 14 5 2 6 -8 8 -18 6 -22z m-1238 -21 c-1 -7 -5 -17 -9
-24 -4 -6 -1 -14 5 -17 7 -3 0 -3 -17 0 -23 3 -25 2 -10 -4 11 -5 20 -13 20
-18 0 -5 7 -19 16 -32 14 -19 17 -20 23 -7 4 10 2 14 -6 9 -7 -5 -8 -3 -3 6 6
9 4 11 -5 5 -9 -6 -11 -4 -5 5 6 9 4 11 -5 5 -9 -6 -11 -4 -6 4 10 15 49 -17
42 -34 -2 -6 5 -12 16 -12 17 -2 18 0 6 15 -12 15 -11 16 4 4 21 -17 13 -41
-12 -35 -15 4 -18 1 -15 -16 4 -23 -13 -24 -33 -1 -12 13 -13 13 -9 0 4 -12
-4 -16 -32 -17 -20 0 -31 2 -24 4 13 5 6 33 -9 33 -5 0 -6 -6 -2 -12 5 -9 2
-8 -10 1 -9 8 -15 19 -13 26 3 6 -4 12 -14 12 -10 1 -19 -3 -19 -8 0 -6 4 -8
8 -5 5 3 9 -1 9 -9 0 -8 -5 -11 -11 -7 -19 12 -35 10 -30 -3 3 -7 0 -16 -7
-21 -7 -4 -10 -3 -6 2 3 6 2 16 -4 24 -7 12 -9 11 -10 -5 0 -19 -1 -19 -8 -1
-4 11 -15 20 -25 22 -11 1 -16 -2 -13 -11 6 -14 -29 -9 -51 8 -9 7 -17 6 -25
-2 -9 -10 -8 -11 7 -5 15 6 17 4 11 -6 -5 -9 -4 -11 3 -6 7 4 12 2 12 -4 0 -6
5 -8 13 -4 8 6 8 3 -1 -9 -8 -9 -11 -21 -7 -27 4 -7 -1 -7 -13 1 -12 7 -18 17
-15 23 3 5 1 6 -6 2 -8 -5 -9 -12 -3 -19 5 -7 8 -20 7 -30 -2 -9 1 -15 6 -11
5 3 6 10 3 16 -5 7 -2 8 5 3 9 -5 10 -10 2 -18 -7 -7 -7 -15 2 -26 10 -14 10
-14 -3 -5 -8 7 -32 10 -52 9 -30 -3 -35 -1 -25 10 7 7 14 13 17 13 19 -1 27 4
27 17 0 11 -4 12 -11 5 -13 -13 -29 -13 -21 1 4 6 -2 13 -14 16 -12 3 -21 10
-21 15 0 6 11 3 25 -6 14 -9 25 -12 25 -7 0 5 -9 13 -20 16 -11 3 -20 12 -20
18 0 7 -4 6 -10 -3 -6 -10 -10 -11 -10 -2 0 6 -5 12 -11 12 -5 0 -7 -4 -4 -10
10 -16 -18 -12 -43 6 -17 11 -20 19 -13 28 6 7 7 17 3 22 -4 4 1 2 11 -5 14
-11 17 -11 18 0 1 8 0 18 -1 24 -1 5 2 7 6 2 4 -4 19 3 32 15 14 13 22 17 18
11 -5 -8 -1 -13 9 -13 12 0 15 5 11 18 -4 12 0 10 14 -7 11 -12 17 -28 14 -33
-4 -6 2 -8 15 -3 13 4 21 2 21 -5 0 -6 -4 -9 -9 -5 -5 3 -12 1 -16 -4 -3 -6
-13 -8 -23 -5 -14 5 -14 4 -2 -4 10 -8 18 -8 27 0 7 6 13 7 13 2 0 -4 5 -3 12
4 6 6 17 8 27 3 9 -5 24 -7 33 -6 10 2 21 -1 24 -6 3 -6 11 -5 20 2 8 6 33 12
56 13 40 1 43 3 40 26 -2 23 -1 24 11 8 8 -10 18 -18 22 -18 4 0 2 6 -4 14
-10 12 -8 17 7 25 11 6 21 9 23 8 2 -1 -2 3 -9 9 -10 9 -10 13 3 18 10 3 13
11 9 18 -6 10 -4 10 8 0 9 -7 15 -18 14 -25z m538 -18 c-3 -5 0 -9 7 -9 7 0 5
-8 -7 -21 -10 -11 -14 -20 -9 -19 22 5 27 -1 15 -15 -7 -8 -17 -12 -23 -8 -6
4 -8 0 -4 -11 4 -10 3 -15 -3 -11 -20 12 -49 -5 -45 -27 4 -21 4 -20 -20 2
-22 21 -26 48 -4 35 5 -4 9 -2 9 4 0 5 9 13 20 16 11 4 17 11 14 17 -5 7 -2 8
6 3 10 -6 7 -13 -11 -28 l-24 -19 25 15 c14 8 24 22 24 31 -1 9 2 16 6 16 5 0
7 11 6 24 -2 17 1 23 10 19 8 -3 11 -9 8 -14z m-1084 -41 c0 -6 -6 -5 -15 2
-8 7 -15 14 -15 16 0 2 7 1 15 -2 8 -4 15 -11 15 -16z m1325 2 c-4 -23 5 -26
24 -7 10 10 12 9 9 -3 -2 -8 3 -14 10 -12 8 1 11 -2 7 -8 -10 -16 24 -24 42
-9 14 12 16 12 11 -1 -4 -11 1 -16 15 -18 17 -1 19 1 7 8 -13 8 -13 11 -1 22
10 10 12 10 7 1 -4 -8 -1 -13 8 -13 10 0 13 6 10 18 -4 9 3 4 14 -12 18 -26
18 -30 4 -46 -8 -10 -21 -16 -27 -13 -7 2 -16 -1 -21 -8 -4 -7 -3 -10 4 -5 6
3 14 2 17 -4 4 -6 1 -9 -5 -8 -7 2 -14 -5 -15 -15 -2 -11 -6 -21 -9 -24 -7 -8
-26 7 -26 20 0 7 4 6 10 -3 5 -8 10 -13 11 -10 0 3 2 13 4 23 2 13 -1 17 -11
13 -20 -8 -17 0 9 25 12 12 16 19 9 15 -7 -4 -18 -3 -25 2 -7 5 -22 8 -34 7
-21 -1 -28 6 -24 28 1 5 -3 5 -9 2 -6 -4 -9 -14 -6 -22 3 -8 2 -12 -3 -9 -10
7 -33 -18 -26 -28 3 -3 -1 -1 -7 4 -10 9 -10 13 1 20 8 4 16 16 17 24 1 9 -2
14 -7 10 -5 -3 -6 -10 -3 -16 5 -8 1 -9 -10 -5 -10 4 -15 3 -11 -3 3 -6 2 -10
-4 -10 -14 0 -46 49 -37 57 3 3 6 1 6 -6 0 -7 13 -2 31 13 37 31 39 32 34 6z
m-877 -3 c8 -10 5 -13 -16 -14 -15 0 -19 1 -9 4 9 2 15 9 12 14 -9 14 1 11 13
-4z m707 -10 c5 5 3 0 -4 -10 -8 -9 -11 -21 -7 -24 4 -4 11 -2 15 6 7 10 9 10
14 -1 3 -10 18 -14 45 -12 29 1 46 -4 57 -16 19 -21 11 -44 -12 -35 -13 4 -14
3 -4 -9 11 -13 9 -15 -8 -11 -12 2 -19 0 -16 -6 4 -5 10 -7 14 -5 4 3 13 1 21
-5 12 -7 10 -9 -7 -9 -13 0 -26 0 -30 0 -10 -1 -12 29 -2 36 15 9 10 24 -8 24
-14 0 -15 -2 -5 -9 11 -7 10 -9 -3 -14 -9 -4 -14 -3 -11 2 3 5 -1 11 -8 14 -8
3 -16 1 -18 -5 -2 -6 -10 -8 -16 -4 -18 11 -5 25 18 21 11 -2 20 1 20 7 0 5
-7 8 -15 4 -8 -3 -15 0 -15 6 0 6 -9 1 -20 -12 -11 -13 -20 -19 -20 -14 0 5
-4 3 -9 -4 -7 -11 -9 -10 -14 3 -4 9 -3 13 2 10 5 -3 13 0 17 6 5 8 -1 10 -20
7 -26 -5 -26 -5 -9 14 16 18 16 19 -3 12 -17 -7 -18 -6 -5 10 14 16 16 16 27
2 11 -15 12 -15 18 1 4 10 4 14 0 11 -3 -4 -13 -1 -20 7 -22 21 -16 27 9 10
13 -8 28 -12 32 -8z m385 19 c0 -3 -4 -8 -10 -11 -5 -3 -10 -1 -10 4 0 6 5 11
10 11 6 0 10 -2 10 -4z m-300 -47 c0 -5 -4 -9 -8 -9 -5 0 -9 7 -9 15 0 8 4 12
9 9 4 -3 8 -9 8 -15z m-1555 -6 c-1 -10 3 -25 9 -33 9 -13 9 -13 -5 -3 -9 7
-20 9 -24 5 -5 -4 -4 0 1 8 5 8 9 18 10 23 3 14 4 17 8 17 2 0 3 -8 1 -17z
m36 4 c-6 -8 -8 -17 -4 -20 3 -4 1 -7 -5 -7 -16 0 -15 27 1 33 19 8 20 8 8 -6z
m1694 -36 c3 -5 1 -12 -5 -16 -5 -3 -10 1 -10 9 0 18 6 21 15 7z m-1945 -11
c0 -5 -2 -10 -4 -10 -3 0 -8 5 -11 10 -3 6 -1 10 4 10 6 0 11 -4 11 -10z m344
-5 c3 -8 1 -15 -4 -15 -6 0 -10 7 -10 15 0 8 2 15 4 15 2 0 6 -7 10 -15z
m1036 -9 c0 -2 -8 -10 -17 -17 -16 -13 -17 -12 -4 4 13 16 21 21 21 13z m605
-73 c-5 -10 -7 -21 -7 -25 1 -5 -3 -8 -9 -8 -5 0 -7 -5 -3 -12 4 -7 3 -8 -4
-4 -8 5 -7 17 5 41 17 35 32 42 18 8z m-205 -19 c0 -8 -4 -14 -8 -14 -4 0 -8
9 -8 19 0 11 4 17 8 15 4 -3 8 -12 8 -20z m-1685 -24 c-3 -5 -12 -10 -18 -10
-7 0 -6 4 3 10 19 12 23 12 15 0z m1689 -31 c-2 -4 0 -10 6 -14 5 -3 10 -11
10 -18 0 -6 -7 -2 -15 9 -9 12 -14 14 -15 6 0 -7 -4 -10 -10 -7 -5 3 -10 1
-10 -5 0 -6 -5 -8 -11 -4 -8 4 -4 11 11 19 17 9 19 14 9 18 -8 3 -4 4 8 4 12
-1 20 -4 17 -8z m-526 -34 c-3 -3 -9 2 -12 12 -6 14 -5 15 5 6 7 -7 10 -15 7
-18z m-1128 11 c0 -3 -4 -8 -10 -11 -5 -3 -10 -1 -10 4 0 6 5 11 10 11 6 0 10
-2 10 -4z m131 -19 c-10 -9 -11 -8 -5 6 3 10 9 15 12 12 3 -3 0 -11 -7 -18z
m49 13 c0 -5 -2 -10 -4 -10 -3 0 -8 5 -11 10 -3 6 -1 10 4 10 6 0 11 -4 11
-10z m35 -19 c-6 -5 -25 10 -25 20 0 5 6 4 14 -3 8 -7 12 -15 11 -17z m64 16
c9 -11 6 -14 -14 -13 -13 1 -28 6 -32 10 -4 5 -2 6 5 2 6 -4 12 -2 12 3 0 15
15 14 29 -2z m266 -8 c-4 -5 -1 -9 6 -9 7 0 10 -3 6 -6 -3 -3 -14 -1 -24 5
-11 6 -13 11 -5 11 7 0 10 5 6 12 -4 7 -3 8 5 4 6 -4 9 -12 6 -17z m168 1 c4
0 5 5 1 12 -4 7 -3 8 5 4 9 -6 9 -11 0 -22 -6 -8 -12 -13 -13 -12 -1 2 -8 12
-16 23 -12 17 -12 18 0 8 8 -7 18 -13 23 -13z m187 16 c0 -2 -8 -10 -17 -17
-16 -13 -17 -12 -4 4 13 16 21 21 21 13z m135 -25 c-6 -5 -25 10 -25 20 0 5 6
4 14 -3 8 -7 12 -15 11 -17z m1093 4 c-3 -3 -9 2 -12 12 -6 14 -5 15 5 6 7 -7
10 -15 7 -18z m-1719 12 c-2 -1 -13 -9 -24 -17 -19 -14 -19 -14 -6 3 7 9 18
17 24 17 6 0 8 -1 6 -3z"/>
<path d="M437 1775 c3 -8 9 -12 14 -9 12 7 11 11 -5 17 -10 4 -13 1 -9 -8z"/>
<path d="M615 1561 c-3 -5 -2 -12 3 -15 5 -3 9 1 9 9 0 17 -3 19 -12 6z"/>
<path d="M826 1571 c-4 -5 -2 -12 3 -15 5 -4 12 -2 15 3 4 5 2 12 -3 15 -5 4
-12 2 -15 -3z"/>
<path d="M993 1442 c-9 -15 -8 -19 3 -19 8 0 12 3 9 5 -3 3 0 11 6 19 6 7 7
13 3 13 -5 0 -14 -8 -21 -18z"/>
<path d="M980 1369 c0 -5 5 -7 10 -4 6 3 10 8 10 11 0 2 -4 4 -10 4 -5 0 -10
-5 -10 -11z"/>
<path d="M339 1518 c-8 -32 -6 -38 8 -27 12 10 16 10 24 -2 6 -9 9 -10 9 -2 0
10 -38 39 -41 31z"/>
<path d="M395 1479 c-4 -6 -4 -13 -1 -16 3 -3 0 -13 -6 -22 -10 -13 -10 -14 2
-4 7 7 14 22 15 33 2 23 -1 25 -10 9z"/>
<path d="M1350 1291 c0 -5 8 -15 18 -22 15 -12 16 -12 5 2 -7 9 -10 19 -6 22
3 4 1 7 -5 7 -7 0 -12 -4 -12 -9z"/>
<path d="M1470 1229 c0 -5 5 -7 10 -4 6 3 10 8 10 11 0 2 -4 4 -10 4 -5 0 -10
-5 -10 -11z"/>
<path d="M1433 1215 c0 -8 4 -15 9 -15 4 0 8 4 8 9 0 6 -4 12 -8 15 -5 3 -9
-1 -9 -9z"/>
<path d="M1264 1178 c-4 -7 -4 -10 1 -6 4 4 14 3 22 -4 11 -8 12 -7 7 6 -7 19
-20 21 -30 4z"/>
<path d="M2585 1371 c-3 -5 -2 -12 3 -15 5 -3 9 1 9 9 0 17 -3 19 -12 6z"/>
<path d="M410 1210 c0 -5 5 -10 11 -10 5 0 7 5 4 10 -3 6 -8 10 -11 10 -2 0
-4 -4 -4 -10z"/>
<path d="M450 1209 c0 -5 5 -7 10 -4 6 3 10 8 10 11 0 2 -4 4 -10 4 -5 0 -10
-5 -10 -11z"/>
<path d="M533 1175 c0 -7 8 -10 19 -7 10 2 18 6 18 7 0 1 -8 5 -18 7 -11 3
-19 0 -19 -7z"/>
<path d="M610 1166 c0 -2 7 -7 16 -10 8 -3 12 -2 9 4 -6 10 -25 14 -25 6z"/>
<path d="M1135 1311 c-3 -5 -2 -12 3 -15 5 -3 9 1 9 9 0 17 -3 19 -12 6z"/>
<path d="M770 1251 c0 -10 19 -25 25 -20 1 2 -3 10 -11 17 -8 7 -14 8 -14 3z"/>
<path d="M810 1250 c0 -5 5 -10 11 -10 5 0 7 5 4 10 -3 6 -8 10 -11 10 -2 0
-4 -4 -4 -10z"/>
<path d="M746 1231 c-4 -5 -2 -12 3 -15 5 -4 12 -2 15 3 4 5 2 12 -3 15 -5 4
-12 2 -15 -3z"/>
<path d="M880 1216 c0 -3 9 -10 19 -16 15 -7 22 -7 27 2 4 7 4 10 -1 6 -4 -4
-16 -3 -26 3 -11 5 -19 7 -19 5z"/>
<path d="M984 1204 c-18 -15 -18 -15 2 -5 12 6 25 7 29 3 5 -4 5 -1 1 6 -9 15
-8 15 -32 -4z"/>
<path d="M715 1190 c3 -5 8 -10 11 -10 2 0 4 5 4 10 0 6 -5 10 -11 10 -5 0 -7
-4 -4 -10z"/>
<path d="M1075 1190 c-3 -6 1 -7 9 -4 18 7 21 14 7 14 -6 0 -13 -4 -16 -10z"/>
<path d="M1170 1170 c0 -5 5 -10 11 -10 5 0 7 5 4 10 -3 6 -8 10 -11 10 -2 0
-4 -4 -4 -10z"/>
<path d="M1115 1160 c3 -5 8 -10 11 -10 2 0 4 5 4 10 0 6 -5 10 -11 10 -5 0
-7 -4 -4 -10z"/>
<path d="M1590 1195 c0 -2 6 -8 13 -14 10 -8 14 -7 14 2 0 8 -6 14 -14 14 -7
0 -13 -1 -13 -2z"/>
<path d="M1900 1230 c-9 -16 -8 -18 5 -14 8 3 13 10 10 14 -3 5 1 11 7 13 10
4 10 6 1 6 -7 1 -17 -8 -23 -19z"/>
<path d="M2083 1185 c-7 -8 -9 -16 -4 -19 5 -3 12 1 15 10 8 22 4 25 -11 9z"/>
<path d="M436 1988 c3 -5 10 -6 15 -3 13 9 11 12 -6 12 -8 0 -12 -4 -9 -9z"/>
<path d="M954 1889 c-3 -6 -2 -15 3 -20 5 -5 9 -1 9 11 0 23 -2 24 -12 9z"/>
<path d="M130 1850 c-13 -8 -12 -10 3 -10 9 0 17 5 17 10 0 12 -1 12 -20 0z"/>
<path d="M1617 1847 c-3 -8 1 -14 9 -14 8 0 14 6 14 14 0 7 -4 13 -9 13 -5 0
-11 -6 -14 -13z"/>
<path d="M2570 1856 c0 -2 8 -10 18 -17 15 -13 16 -12 3 4 -13 16 -21 21 -21
13z"/>
<path d="M956 1842 c-2 -4 -1 -14 4 -22 7 -11 9 -9 7 8 -1 24 -3 26 -11 14z"/>
<path d="M691 1804 c0 -11 3 -14 6 -6 3 7 2 16 -1 19 -3 4 -6 -2 -5 -13z"/>
<path d="M2455 1790 c-3 -5 -1 -10 4 -10 6 0 11 5 11 10 0 6 -2 10 -4 10 -3 0
-8 -4 -11 -10z"/>
<path d="M943 1734 c4 -4 2 -13 -4 -21 -15 -17 -1 -17 16 1 12 12 12 15 -2 21
-10 3 -14 3 -10 -1z"/>
<path d="M1540 1725 c7 -8 17 -15 22 -15 5 0 3 7 -6 15 -8 8 -18 15 -22 15 -3
0 -1 -7 6 -15z"/>
<path d="M1966 1697 c3 -10 9 -15 12 -12 3 3 0 11 -7 18 -10 9 -11 8 -5 -6z"/>
<path d="M1171 1662 c-6 -12 -4 -23 9 -40 10 -12 21 -19 24 -14 3 5 -4 14 -14
22 -14 10 -16 18 -9 32 5 10 7 18 5 18 -3 0 -10 -8 -15 -18z"/>
<path d="M1801 1666 c-10 -11 -9 -14 1 -12 14 2 23 15 15 22 -2 2 -10 -2 -16
-10z"/>
<path d="M2385 1661 c-6 -11 9 -23 19 -14 9 9 7 23 -3 23 -6 0 -12 -4 -16 -9z"/>
<path d="M111 1653 c-1 -17 16 -25 25 -12 4 7 3 9 -4 5 -5 -3 -13 0 -15 6 -4
9 -6 10 -6 1z"/>
<path d="M2595 1651 c-3 -5 -2 -12 3 -15 5 -3 9 1 9 9 0 17 -3 19 -12 6z"/>
<path d="M846 1634 c-17 -12 -17 -14 -4 -14 9 0 20 5 23 11 11 17 2 18 -19 3z"/>
<path d="M890 1633 c0 -5 -10 -15 -22 -21 -13 -6 -18 -11 -12 -11 16 -1 50 27
41 35 -4 4 -7 3 -7 -3z"/>
<path d="M107 1619 c7 -7 15 -10 18 -7 3 3 -2 9 -12 12 -14 6 -15 5 -6 -5z"/>
<path d="M1225 1619 c-11 -16 -1 -19 13 -3 7 8 8 14 3 14 -5 0 -13 -5 -16 -11z"/>
<path d="M2160 1590 c-9 -6 -10 -10 -3 -10 6 0 15 5 18 10 8 12 4 12 -15 0z"/>
<path d="M30 1412 c0 -5 7 -9 15 -9 8 0 12 4 9 9 -3 4 -9 8 -15 8 -5 0 -9 -4
-9 -8z"/>
<path d="M2355 1284 c-13 -30 -14 -45 -4 -38 5 3 7 9 4 14 -3 4 0 10 6 12 7 2
10 10 7 18 -3 10 -7 9 -13 -6z"/>
<path d="M49 1278 c12 -16 11 -18 -3 -18 -9 0 -16 -4 -16 -8 0 -14 29 -10 34
4 3 7 -3 18 -12 26 -15 12 -16 11 -3 -4z"/>
<path d="M2438 1273 c6 -2 12 -9 12 -14 0 -6 -4 -7 -10 -4 -6 3 -7 -1 -4 -10
6 -14 8 -14 19 2 13 18 4 34 -20 32 -5 0 -4 -3 3 -6z"/>
<path d="M2364 1229 c-3 -6 -2 -15 4 -21 6 -6 12 -6 17 3 6 8 4 10 -5 4 -10
-6 -12 -4 -7 8 7 19 2 23 -9 6z"/>
<path d="M2720 1230 c-9 -6 -10 -10 -3 -10 6 0 15 5 18 10 8 12 4 12 -15 0z"/>
<path d="M55 1219 c-4 -6 -5 -12 -2 -15 2 -3 7 2 10 11 7 17 1 20 -8 4z"/>
<path d="M126 1202 c-3 -5 1 -9 9 -9 8 0 12 4 9 9 -3 4 -7 8 -9 8 -2 0 -6 -4
-9 -8z"/>
<path d="M2217 1193 c3 -7 8 -13 12 -13 4 0 8 6 8 13 0 8 -6 14 -13 14 -7 0
-10 -6 -7 -14z"/>
<path d="M2426 1187 c3 -10 9 -15 12 -12 3 3 0 11 -7 18 -10 9 -11 8 -5 -6z"/>
<path d="M2475 1180 c-3 -6 1 -7 9 -4 18 7 21 14 7 14 -6 0 -13 -4 -16 -10z"/>
<path d="M2675 1180 c3 -5 8 -10 11 -10 2 0 4 5 4 10 0 6 -5 10 -11 10 -5 0
-7 -4 -4 -10z"/>
<path d="M2546 1171 c-4 -5 -2 -12 3 -15 5 -4 12 -2 15 3 4 5 2 12 -3 15 -5 4
-12 2 -15 -3z"/>
<path d="M44 1114 c-18 -14 -18 -15 4 -4 12 6 22 13 22 15 0 8 -5 6 -26 -11z"/>
<path d="M20 989 c0 -5 5 -7 10 -4 6 3 10 8 10 11 0 2 -4 4 -10 4 -5 0 -10 -5
-10 -11z"/>
<path d="M2838 993 c7 -3 16 -2 19 1 4 3 -2 6 -13 5 -11 0 -14 -3 -6 -6z"/>
<path d="M1407 953 c3 -7 6 -13 8 -13 2 0 5 6 8 13 3 8 -1 14 -8 14 -7 0 -11
-6 -8 -14z"/>
<path d="M1507 949 c4 -13 8 -18 11 -10 2 7 -1 18 -6 23 -8 8 -9 4 -5 -13z"/>
<path d="M1544 958 c-12 -19 -14 -39 -3 -32 5 3 7 9 4 14 -3 4 2 10 9 13 8 3
17 2 20 -4 2 -5 3 -4 2 3 -3 17 -23 21 -32 6z"/>
<path d="M216 944 c-3 -7 2 -10 15 -7 22 6 26 20 4 20 -8 0 -16 -6 -19 -13z"/>
<path d="M827 942 c-17 -18 -14 -32 7 -32 6 0 5 4 -3 9 -10 7 -10 10 -1 16 7
4 16 1 21 -6 5 -8 9 -9 9 -4 0 6 -4 16 -8 23 -7 10 -12 8 -25 -6z"/>
<path d="M1590 946 c0 -8 4 -17 9 -20 5 -4 7 3 4 14 -6 23 -13 26 -13 6z"/>
<path d="M2190 950 c0 -6 4 -9 9 -6 5 4 12 1 14 -4 3 -6 4 -5 3 2 -3 15 -26
23 -26 8z"/>
<path d="M2257 946 c-4 -10 -1 -13 8 -9 8 3 12 9 9 14 -7 12 -11 11 -17 -5z"/>
<path d="M2444 952 c3 -5 0 -13 -6 -15 -9 -4 -10 -6 -1 -6 17 -1 25 16 12 25
-7 4 -9 3 -5 -4z"/>
<path d="M2672 951 c2 -7 7 -12 11 -12 12 1 9 15 -3 20 -7 2 -11 -2 -8 -8z"/>
<path d="M660 929 c0 -5 5 -7 10 -4 6 3 10 8 10 11 0 2 -4 4 -10 4 -5 0 -10
-5 -10 -11z"/>
</g>
</svg>
